# xmcd
#
# Track frame offsets:
# 150
# 18534
# 38160
# 61268
# 84058
# 105944
# 121286
# 138492
# 156864
#
# Disc length: 2352 seconds
#
# Revision: 0
# Processed by: cddbd v1.5.1PL0 Copyright (c) Steve Scherf et al.
# Submitted via: MacMP3 Pro 5.0 (http://mp3.act2.co.jp/)
#
DISCID=65092e09
DTITLE=Pet Shop Boys - best
DYEAR=1900
DGENRE=
TTITLE0=Always On My Mind
TTITLE1=Domino Dancing
TTITLE2=Go West
TTITLE3=It's A Sin
TTITLE4=Left To My Own Devices
TTITLE5=New York City Boys
TTITLE6=Opportunities
TTITLE7=Se A Vida E
TTITLE8=What Have I Done To Deserve This?
EXTD=
EXTT0=
EXTT1=
EXTT2=
EXTT3=
EXTT4=
EXTT5=
EXTT6=
EXTT7=
EXTT8=
PLAYORDER=
